<mxfile host="app.diagrams.net" modified="2023-12-09T13:13:23.558Z" agent="Mozilla/5.0 (Windows NT 10.0; Win64; x64) AppleWebKit/537.36 (KHTML, like Gecko) Chrome/120.0.0.0 Safari/537.36" etag="yd7qAERO6FzznkYqWK4H" version="22.1.7" type="github">
  <diagram name="Page-1" id="e7e014a7-5840-1c2e-5031-d8a46d1fe8dd">
    <mxGraphModel dx="356" dy="181" grid="1" gridSize="10" guides="1" tooltips="1" connect="1" arrows="1" fold="1" page="1" pageScale="1" pageWidth="1169" pageHeight="826" background="none" math="0" shadow="0">
      <root>
        <mxCell id="0" />
        <mxCell id="1" parent="0" />
        <mxCell id="AjuWYl2VFzzxhwBT1_Rn-127" value="Actor" style="shape=umlActor;verticalLabelPosition=bottom;verticalAlign=top;html=1;" parent="1" vertex="1">
          <mxGeometry x="70" y="353" width="30" height="60" as="geometry" />
        </mxCell>
        <mxCell id="AjuWYl2VFzzxhwBT1_Rn-130" value="" style="endArrow=none;html=1;rounded=0;" parent="1" edge="1">
          <mxGeometry width="50" height="50" relative="1" as="geometry">
            <mxPoint x="120" y="370" as="sourcePoint" />
            <mxPoint x="240" y="180" as="targetPoint" />
          </mxGeometry>
        </mxCell>
        <mxCell id="AjuWYl2VFzzxhwBT1_Rn-131" value="" style="endArrow=none;html=1;rounded=0;" parent="1" edge="1">
          <mxGeometry width="50" height="50" relative="1" as="geometry">
            <mxPoint x="130" y="380" as="sourcePoint" />
            <mxPoint x="310" y="220" as="targetPoint" />
          </mxGeometry>
        </mxCell>
        <mxCell id="AjuWYl2VFzzxhwBT1_Rn-132" value="" style="endArrow=none;html=1;rounded=0;" parent="1" edge="1">
          <mxGeometry width="50" height="50" relative="1" as="geometry">
            <mxPoint x="130" y="390" as="sourcePoint" />
            <mxPoint x="340" y="290" as="targetPoint" />
          </mxGeometry>
        </mxCell>
        <mxCell id="AjuWYl2VFzzxhwBT1_Rn-133" value="" style="endArrow=none;html=1;rounded=0;" parent="1" edge="1">
          <mxGeometry width="50" height="50" relative="1" as="geometry">
            <mxPoint x="130" y="400" as="sourcePoint" />
            <mxPoint x="380" y="360" as="targetPoint" />
          </mxGeometry>
        </mxCell>
        <mxCell id="AjuWYl2VFzzxhwBT1_Rn-134" value="" style="endArrow=none;html=1;rounded=0;" parent="1" edge="1">
          <mxGeometry width="50" height="50" relative="1" as="geometry">
            <mxPoint x="130" y="410" as="sourcePoint" />
            <mxPoint x="390" y="440" as="targetPoint" />
          </mxGeometry>
        </mxCell>
        <mxCell id="AjuWYl2VFzzxhwBT1_Rn-135" value="" style="endArrow=none;html=1;rounded=0;" parent="1" edge="1">
          <mxGeometry width="50" height="50" relative="1" as="geometry">
            <mxPoint x="130" y="420" as="sourcePoint" />
            <mxPoint x="360" y="510" as="targetPoint" />
          </mxGeometry>
        </mxCell>
        <mxCell id="AjuWYl2VFzzxhwBT1_Rn-136" value="" style="endArrow=none;html=1;rounded=0;entryX=0;entryY=0;entryDx=0;entryDy=0;" parent="1" target="AjuWYl2VFzzxhwBT1_Rn-151" edge="1">
          <mxGeometry width="50" height="50" relative="1" as="geometry">
            <mxPoint x="130" y="430" as="sourcePoint" />
            <mxPoint x="310" y="570" as="targetPoint" />
          </mxGeometry>
        </mxCell>
        <mxCell id="AjuWYl2VFzzxhwBT1_Rn-137" value="" style="endArrow=none;html=1;rounded=0;entryX=0.317;entryY=0.043;entryDx=0;entryDy=0;entryPerimeter=0;" parent="1" target="AjuWYl2VFzzxhwBT1_Rn-152" edge="1">
          <mxGeometry width="50" height="50" relative="1" as="geometry">
            <mxPoint x="130" y="440" as="sourcePoint" />
            <mxPoint x="250" y="610" as="targetPoint" />
          </mxGeometry>
        </mxCell>
        <mxCell id="AjuWYl2VFzzxhwBT1_Rn-143" value="explore routines" style="ellipse;whiteSpace=wrap;html=1;" parent="1" vertex="1">
          <mxGeometry x="210" y="110" width="140" height="70" as="geometry" />
        </mxCell>
        <mxCell id="AjuWYl2VFzzxhwBT1_Rn-144" value="select exercises" style="ellipse;whiteSpace=wrap;html=1;" parent="1" vertex="1">
          <mxGeometry x="725" y="60" width="140" height="70" as="geometry" />
        </mxCell>
        <mxCell id="AjuWYl2VFzzxhwBT1_Rn-147" value="add routines" style="ellipse;whiteSpace=wrap;html=1;" parent="1" vertex="1">
          <mxGeometry x="300" y="170" width="140" height="70" as="geometry" />
        </mxCell>
        <mxCell id="AjuWYl2VFzzxhwBT1_Rn-148" value="add&amp;nbsp;sets to a routine" style="ellipse;whiteSpace=wrap;html=1;" parent="1" vertex="1">
          <mxGeometry x="330" y="240" width="140" height="70" as="geometry" />
        </mxCell>
        <mxCell id="AjuWYl2VFzzxhwBT1_Rn-149" value="finish current routines" style="ellipse;whiteSpace=wrap;html=1;" parent="1" vertex="1">
          <mxGeometry x="380" y="400" width="140" height="70" as="geometry" />
        </mxCell>
        <mxCell id="AjuWYl2VFzzxhwBT1_Rn-150" value="attach pump pictures" style="ellipse;whiteSpace=wrap;html=1;" parent="1" vertex="1">
          <mxGeometry x="350" y="480" width="140" height="70" as="geometry" />
        </mxCell>
        <mxCell id="AjuWYl2VFzzxhwBT1_Rn-151" value="unfinish past routines" style="ellipse;whiteSpace=wrap;html=1;" parent="1" vertex="1">
          <mxGeometry x="280" y="550" width="140" height="70" as="geometry" />
        </mxCell>
        <mxCell id="AjuWYl2VFzzxhwBT1_Rn-152" value="delete routines" style="ellipse;whiteSpace=wrap;html=1;" parent="1" vertex="1">
          <mxGeometry x="190" y="620" width="140" height="70" as="geometry" />
        </mxCell>
        <mxCell id="AjuWYl2VFzzxhwBT1_Rn-153" value="" style="endArrow=none;html=1;rounded=0;entryX=0.426;entryY=-0.027;entryDx=0;entryDy=0;entryPerimeter=0;" parent="1" target="AjuWYl2VFzzxhwBT1_Rn-154" edge="1">
          <mxGeometry width="50" height="50" relative="1" as="geometry">
            <mxPoint x="90" y="450" as="sourcePoint" />
            <mxPoint x="120" y="670" as="targetPoint" />
          </mxGeometry>
        </mxCell>
        <mxCell id="AjuWYl2VFzzxhwBT1_Rn-154" value="calculate nutritions" style="ellipse;whiteSpace=wrap;html=1;" parent="1" vertex="1">
          <mxGeometry x="120" y="730" width="140" height="70" as="geometry" />
        </mxCell>
        <mxCell id="AjuWYl2VFzzxhwBT1_Rn-160" value="&lt;font style=&quot;font-size: 17px;&quot;&gt;system&lt;/font&gt;" style="html=1;whiteSpace=wrap;" parent="1" vertex="1">
          <mxGeometry x="740" y="358" width="110" height="50" as="geometry" />
        </mxCell>
        <mxCell id="KDFVpSoZ10aqwDzfbRO3-2" value="&amp;lt;&amp;lt;include&amp;gt;&amp;gt;" style="html=1;verticalAlign=bottom;labelBackgroundColor=none;endArrow=open;endFill=0;dashed=1;rounded=0;entryX=0;entryY=0.5;entryDx=0;entryDy=0;exitX=1;exitY=0;exitDx=0;exitDy=0;" parent="1" source="AjuWYl2VFzzxhwBT1_Rn-143" target="KDFVpSoZ10aqwDzfbRO3-3" edge="1">
          <mxGeometry width="160" relative="1" as="geometry">
            <mxPoint x="380" y="100" as="sourcePoint" />
            <mxPoint x="370" y="90" as="targetPoint" />
          </mxGeometry>
        </mxCell>
        <mxCell id="KDFVpSoZ10aqwDzfbRO3-3" value="search by muscle" style="ellipse;whiteSpace=wrap;html=1;" parent="1" vertex="1">
          <mxGeometry x="470" y="60" width="140" height="70" as="geometry" />
        </mxCell>
        <mxCell id="KDFVpSoZ10aqwDzfbRO3-4" value="&amp;lt;&amp;lt;include&amp;gt;&amp;gt;" style="html=1;verticalAlign=bottom;labelBackgroundColor=none;endArrow=open;endFill=0;dashed=1;rounded=0;entryX=0;entryY=0.5;entryDx=0;entryDy=0;exitX=1;exitY=0.5;exitDx=0;exitDy=0;" parent="1" source="KDFVpSoZ10aqwDzfbRO3-3" target="AjuWYl2VFzzxhwBT1_Rn-144" edge="1">
          <mxGeometry width="160" relative="1" as="geometry">
            <mxPoint x="860" y="105" as="sourcePoint" />
            <mxPoint x="680" y="100" as="targetPoint" />
          </mxGeometry>
        </mxCell>
        <mxCell id="KDFVpSoZ10aqwDzfbRO3-9" value="finish&lt;br style=&quot;border-color: var(--border-color);&quot;&gt;&amp;nbsp;routine sets" style="ellipse;whiteSpace=wrap;html=1;" parent="1" vertex="1">
          <mxGeometry x="380" y="320" width="139" height="70" as="geometry" />
        </mxCell>
        <mxCell id="KDFVpSoZ10aqwDzfbRO3-10" value="" style="endArrow=none;html=1;rounded=0;entryX=0.5;entryY=0;entryDx=0;entryDy=0;exitX=0.5;exitY=1;exitDx=0;exitDy=0;" parent="1" source="AjuWYl2VFzzxhwBT1_Rn-144" target="AjuWYl2VFzzxhwBT1_Rn-160" edge="1">
          <mxGeometry width="50" height="50" relative="1" as="geometry">
            <mxPoint x="900" y="420" as="sourcePoint" />
            <mxPoint x="950" y="370" as="targetPoint" />
          </mxGeometry>
        </mxCell>
        <mxCell id="KDFVpSoZ10aqwDzfbRO3-11" value="" style="endArrow=none;html=1;rounded=0;exitX=1;exitY=0.5;exitDx=0;exitDy=0;entryX=0.25;entryY=0;entryDx=0;entryDy=0;" parent="1" source="AjuWYl2VFzzxhwBT1_Rn-147" target="AjuWYl2VFzzxhwBT1_Rn-160" edge="1">
          <mxGeometry width="50" height="50" relative="1" as="geometry">
            <mxPoint x="827" y="127.5" as="sourcePoint" />
            <mxPoint x="790" y="350" as="targetPoint" />
          </mxGeometry>
        </mxCell>
        <mxCell id="KDFVpSoZ10aqwDzfbRO3-12" value="" style="endArrow=none;html=1;rounded=0;entryX=0;entryY=0;entryDx=0;entryDy=0;exitX=1;exitY=0.5;exitDx=0;exitDy=0;" parent="1" source="AjuWYl2VFzzxhwBT1_Rn-148" target="AjuWYl2VFzzxhwBT1_Rn-160" edge="1">
          <mxGeometry width="50" height="50" relative="1" as="geometry">
            <mxPoint x="730" y="185" as="sourcePoint" />
            <mxPoint x="843" y="480" as="targetPoint" />
          </mxGeometry>
        </mxCell>
        <mxCell id="KDFVpSoZ10aqwDzfbRO3-13" value="" style="endArrow=none;html=1;rounded=0;entryX=0;entryY=0.5;entryDx=0;entryDy=0;" parent="1" target="AjuWYl2VFzzxhwBT1_Rn-160" edge="1">
          <mxGeometry width="50" height="50" relative="1" as="geometry">
            <mxPoint x="520" y="360" as="sourcePoint" />
            <mxPoint x="690" y="430" as="targetPoint" />
          </mxGeometry>
        </mxCell>
        <mxCell id="KDFVpSoZ10aqwDzfbRO3-14" value="" style="endArrow=none;html=1;rounded=0;entryX=0;entryY=0.75;entryDx=0;entryDy=0;exitX=1;exitY=0.5;exitDx=0;exitDy=0;" parent="1" source="AjuWYl2VFzzxhwBT1_Rn-149" target="AjuWYl2VFzzxhwBT1_Rn-160" edge="1">
          <mxGeometry width="50" height="50" relative="1" as="geometry">
            <mxPoint x="530" y="370" as="sourcePoint" />
            <mxPoint x="1060" y="425" as="targetPoint" />
          </mxGeometry>
        </mxCell>
        <mxCell id="KDFVpSoZ10aqwDzfbRO3-15" value="&lt;font style=&quot;font-size: 17px;&quot;&gt;ningasAPI&lt;/font&gt;" style="html=1;whiteSpace=wrap;" parent="1" vertex="1">
          <mxGeometry x="1050" y="358" width="110" height="50" as="geometry" />
        </mxCell>
        <mxCell id="KDFVpSoZ10aqwDzfbRO3-16" value="" style="endArrow=none;html=1;rounded=0;entryX=0;entryY=0.5;entryDx=0;entryDy=0;exitX=1;exitY=0.5;exitDx=0;exitDy=0;" parent="1" source="AjuWYl2VFzzxhwBT1_Rn-154" target="KDFVpSoZ10aqwDzfbRO3-15" edge="1">
          <mxGeometry width="50" height="50" relative="1" as="geometry">
            <mxPoint x="470" y="627" as="sourcePoint" />
            <mxPoint x="1000" y="620" as="targetPoint" />
          </mxGeometry>
        </mxCell>
        <mxCell id="KDFVpSoZ10aqwDzfbRO3-17" value="" style="endArrow=none;html=1;rounded=0;entryX=0.25;entryY=0;entryDx=0;entryDy=0;exitX=0.5;exitY=1;exitDx=0;exitDy=0;" parent="1" source="KDFVpSoZ10aqwDzfbRO3-3" target="KDFVpSoZ10aqwDzfbRO3-15" edge="1">
          <mxGeometry width="50" height="50" relative="1" as="geometry">
            <mxPoint x="495" y="182.5" as="sourcePoint" />
            <mxPoint x="1160" y="367.5" as="targetPoint" />
          </mxGeometry>
        </mxCell>
        <mxCell id="KDFVpSoZ10aqwDzfbRO3-18" value="" style="endArrow=none;html=1;rounded=0;entryX=0;entryY=1;entryDx=0;entryDy=0;exitX=1;exitY=0.5;exitDx=0;exitDy=0;" parent="1" source="AjuWYl2VFzzxhwBT1_Rn-150" target="AjuWYl2VFzzxhwBT1_Rn-160" edge="1">
          <mxGeometry width="50" height="50" relative="1" as="geometry">
            <mxPoint x="530" y="445" as="sourcePoint" />
            <mxPoint x="750" y="406" as="targetPoint" />
          </mxGeometry>
        </mxCell>
        <mxCell id="KDFVpSoZ10aqwDzfbRO3-19" value="" style="endArrow=none;html=1;rounded=0;entryX=0.186;entryY=1.003;entryDx=0;entryDy=0;exitX=1;exitY=0.5;exitDx=0;exitDy=0;entryPerimeter=0;" parent="1" source="AjuWYl2VFzzxhwBT1_Rn-151" target="AjuWYl2VFzzxhwBT1_Rn-160" edge="1">
          <mxGeometry width="50" height="50" relative="1" as="geometry">
            <mxPoint x="540" y="455" as="sourcePoint" />
            <mxPoint x="760" y="416" as="targetPoint" />
          </mxGeometry>
        </mxCell>
        <mxCell id="DwoQ9xukiUmdAtzrhwfa-1" value="" style="endArrow=none;html=1;rounded=0;entryX=0.39;entryY=0.986;entryDx=0;entryDy=0;exitX=0.977;exitY=0.672;exitDx=0;exitDy=0;entryPerimeter=0;exitPerimeter=0;" edge="1" parent="1" source="AjuWYl2VFzzxhwBT1_Rn-152" target="AjuWYl2VFzzxhwBT1_Rn-160">
          <mxGeometry width="50" height="50" relative="1" as="geometry">
            <mxPoint x="450" y="605" as="sourcePoint" />
            <mxPoint x="770" y="418" as="targetPoint" />
          </mxGeometry>
        </mxCell>
      </root>
    </mxGraphModel>
  </diagram>
</mxfile>
